<svg width="24" height="24" viewBox="0 0 24 24" fill="none" xmlns="http://www.w3.org/2000/svg">
<path d="M5 13H16.86L13.23 17.36C13.146 17.4611 13.0826 17.5778 13.0437 17.7034C13.0047 17.829 12.9909 17.961 13.003 18.0919C13.0274 18.3563 13.1558 18.6002 13.36 18.77C13.5642 18.9397 13.8275 19.0214 14.0919 18.997C14.3563 18.9726 14.6003 18.8442 14.77 18.64L19.77 12.64C19.8036 12.5923 19.8337 12.5421 19.86 12.49C19.86 12.44 19.91 12.41 19.93 12.36C19.9753 12.2453 19.9991 12.1233 20 12C19.9991 11.8767 19.9753 11.7546 19.93 11.64C19.93 11.59 19.88 11.56 19.86 11.51C19.8337 11.4578 19.8036 11.4077 19.77 11.36L14.77 5.35999C14.676 5.2471 14.5582 5.15632 14.4252 5.0941C14.2921 5.03188 14.1469 4.99975 14 4.99999C13.7663 4.99953 13.5399 5.08091 13.36 5.22999C13.2587 5.31394 13.175 5.41704 13.1137 5.53338C13.0523 5.64973 13.0145 5.77704 13.0025 5.90802C12.9904 6.03899 13.0043 6.17106 13.0433 6.29667C13.0824 6.42227 13.1458 6.53894 13.23 6.63999L16.86 11H5C4.73478 11 4.48043 11.1053 4.29289 11.2929C4.10536 11.4804 4 11.7348 4 12C4 12.2652 4.10536 12.5196 4.29289 12.7071C4.48043 12.8946 4.73478 13 5 13Z" fill="white"/>
</svg>
