<?xml version="1.0" ?><svg viewBox="0 0 512 512" xmlns="http://www.w3.org/2000/svg"><title/><g id="Bread"><path d="M160.6853,188.2708c-26.2819-15.173-51.7819-23.8764-69.9581-23.8764-8.9126,0-13.5245,2.1366-15.4718,3.4066-2.311,1.4992-4.9631,4.1488-4.9631,11.4078,0,11.988,7.2316,28.5754,20.36,46.7068l2.9085,4.0168V351.924a5.1039,5.1039,0,0,0,.8194,2.7741,9.0828,9.0828,0,0,0,1.95,2.1839,5.0961,5.0961,0,0,0,.5529.3711l138.579,79.9987a5.1,5.1,0,0,0,7.65-4.4176V326.673l11.9282-2.6944c8.1605-1.8478,11.3406-5.7425,11.3406-13.8906C266.3809,280.7281,223.91,224.7726,160.6853,188.2708Zm-61.967,163.74.13-.0871H98.85ZM255.8994,312.912c-.02.0224-.5154.53-3.1078,1.1156L236.889,317.621a5.1012,5.1012,0,0,0-3.9769,4.9755V424.0013L103.761,349.4462V228.2789a5.0985,5.0985,0,0,0-.9686-2.9908l-3.8774-5.354c-11.5372-15.93-18.4227-31.1528-18.4227-40.7253a8.67,8.67,0,0,1,.3212-2.8563c.279-.1818,2.9037-1.7581,9.9137-1.7581,16.4405,0,40.08,8.2053,64.8581,22.5117,62.3256,35.9814,100.5955,90.0544,100.5955,112.9819A7.269,7.269,0,0,1,255.8994,312.912Z"/><path d="M428.1819,136.8947c-21.7771-25.9557-50.7236-50.0363-81.5029-67.8066-21.9439-12.6679-43.38-21.2318-61.9919-24.7654-18.6917-3.5511-34.0415-1.9374-44.4382,4.6542-.0374.02-.0747.04-.11.0623L64.3537,150.5685c-.015.0078-.02.0215-.0349.0293-.0622.04-.1344.0694-.1967.11-9.3085,6.0587-14.2292,15.915-14.2292,28.5032,0,16.1492,8.0385,35.9416,23.2688,57.32V353.3757c0,7.8243,5.7325,17.0357,13.3327,21.426L245.08,466.36a16.098,16.098,0,0,0,7.9563,2.3483,10.8807,10.8807,0,0,0,3.28-.5466,5.0014,5.0014,0,0,0,1.4967-.5491l.3436-.1989c.0572-.0311.122-.04.1793-.0725.0535-.0311.09-.0819.1444-.1139l174.8892-101.01c3.7254-1.7381,5.9367-5.5781,5.9367-10.3494V241.28a33.4645,33.4645,0,0,0,15.925-10.32c4.8709-5.862,7.3413-13.395,7.3413-22.39C462.5721,188.7737,450.3575,163.3185,428.1819,136.8947Zm-170.8948,197.03a5.1017,5.1017,0,0,0-3.9744,4.9755V457.3853a9.019,9.019,0,0,1-.1,1.1073l-.015.0087a5.3712,5.3712,0,0,1-3.0181-.9765L91.5944,365.9688c-4.7115-2.7218-8.2328-8.8951-8.2328-12.5931V234.89a5.0979,5.0979,0,0,0-.9687-2.9908c-14.3811-19.8547-22.3-38.5663-22.3-52.6884,0-9.08,3.2174-15.7837,9.5576-19.9265l.1842-.1056c5.2793-3.3861,12.374-5.0421,20.8458-5.0421,19.6355,0,46.5947,8.8379,75.1079,25.3008,61.09,35.2742,110.793,93.8818,110.793,130.65C276.5814,323.0123,270.0894,331.0308,257.2871,333.9245ZM361.1025,287.397l-51.56,29.7782a5.0987,5.0987,0,1,1-5.1-8.83l51.56-29.7782a5.0987,5.0987,0,0,1,5.1,8.83Zm47.7726-27.5894-16.5824,9.575a5.1008,5.1008,0,0,1-5.1-8.8354l16.5824-9.5749a5.1008,5.1008,0,1,1,5.1,8.8353Z"/></g></svg>